<?xml version="1.0" standalone="no"?>
<!DOCTYPE svg PUBLIC "-//W3C//DTD SVG 20010904//EN"
 "http://www.w3.org/TR/2001/REC-SVG-20010904/DTD/svg10.dtd">
<svg version="1.0" xmlns="http://www.w3.org/2000/svg"
 width="700.000000pt" height="700.000000pt" viewBox="0 0 700.000000 700.000000"
 preserveAspectRatio="xMidYMid meet">
<metadata>
Created by potrace 1.11, written by Peter Selinger 2001-2013
</metadata>
<g transform="translate(0.000000,700.000000) scale(0.100000,-0.100000)"
fill="#000000" stroke="none">
<path d="M4235 6757 c-51 -25 -91 -63 -161 -152 -21 -27 -41 -52 -44 -55 -3
-3 -52 -63 -110 -135 -57 -71 -115 -144 -129 -160 -14 -17 -40 -49 -58 -70
-17 -22 -55 -70 -85 -106 -29 -37 -107 -133 -173 -215 -65 -82 -122 -151 -125
-154 -3 -3 -30 -36 -61 -75 -31 -38 -107 -133 -170 -210 -62 -77 -133 -165
-157 -195 -102 -127 -205 -254 -212 -260 -3 -3 -50 -61 -104 -130 -55 -69
-106 -133 -115 -142 -9 -9 -20 -23 -26 -30 -9 -12 -72 -91 -102 -128 -7 -8
-105 -130 -218 -270 -113 -140 -214 -264 -223 -275 -9 -11 -72 -88 -139 -172
-67 -83 -129 -159 -137 -170 -8 -10 -68 -83 -132 -163 -64 -80 -130 -161 -146
-180 -16 -19 -32 -40 -37 -45 -4 -6 -64 -80 -133 -166 -89 -111 -127 -166
-135 -197 -28 -111 26 -220 133 -263 21 -9 231 -12 791 -13 419 -1 764 -4 768
-7 3 -4 2 -24 -4 -45 -5 -22 -12 -55 -15 -74 -4 -33 -11 -72 -35 -200 -6 -30
-13 -71 -16 -90 -3 -19 -12 -69 -20 -110 -8 -41 -17 -91 -20 -110 -3 -19 -12
-69 -20 -110 -8 -41 -17 -91 -20 -110 -3 -19 -15 -82 -26 -140 -16 -89 -110
-601 -139 -765 -5 -27 -21 -115 -36 -195 -43 -227 -33 -303 50 -383 67 -65
191 -84 278 -43 55 26 44 15 299 331 84 105 156 192 159 195 3 3 21 25 40 50
19 25 37 47 40 50 3 3 41 50 85 105 66 82 205 254 283 350 10 11 44 54 76 95
33 41 62 77 66 80 3 3 41 50 86 105 44 55 185 231 314 390 129 160 322 398
428 530 107 132 213 262 235 289 23 27 46 56 51 65 5 9 12 18 15 21 4 3 36 41
71 85 36 44 67 82 70 85 3 3 71 86 150 185 122 152 328 407 388 480 10 11 44
54 77 95 73 92 87 109 100 124 67 75 95 130 99 191 5 88 -43 168 -121 206
l-48 23 -762 1 c-419 0 -764 3 -767 6 -3 2 6 63 19 134 13 72 26 144 29 160 3
17 8 41 11 55 3 14 8 41 11 60 3 19 14 80 25 135 10 55 21 116 24 135 3 19 17
94 30 165 13 72 27 146 30 165 3 19 15 82 26 140 20 103 23 121 34 190 3 19 8
46 11 60 3 14 8 36 10 50 31 176 49 276 69 380 13 69 27 141 30 160 3 19 10
60 15 91 22 123 -13 212 -109 278 -42 28 -61 34 -118 38 -57 3 -76 0 -118 -20z
m-218 -949 c-15 -84 -37 -205 -42 -228 -3 -14 -12 -65 -20 -115 -9 -49 -20
-111 -26 -137 -6 -25 -12 -57 -14 -70 -2 -20 -32 -190 -50 -283 -9 -47 -36
-197 -41 -230 -3 -16 -7 -37 -9 -45 -2 -8 -7 -31 -10 -50 -5 -31 -41 -222 -51
-275 -24 -122 -36 -219 -30 -259 9 -60 57 -123 118 -154 l48 -24 669 0 670 0
-122 -152 c-130 -160 -285 -352 -302 -374 -5 -7 -17 -21 -26 -30 -8 -9 -42
-51 -75 -92 -82 -103 -348 -433 -404 -501 -25 -30 -61 -75 -80 -99 -19 -24
-40 -48 -45 -54 -6 -6 -26 -31 -45 -56 -19 -25 -42 -54 -51 -65 -95 -116 -174
-213 -224 -275 -33 -41 -64 -80 -70 -86 -5 -7 -80 -98 -165 -204 -474 -588
-643 -792 -637 -770 3 14 9 43 12 65 4 22 16 87 26 145 11 58 22 120 25 139 3
18 8 43 10 55 4 22 9 46 25 141 5 33 16 92 24 130 15 74 21 106 30 169 4 21 9
48 11 60 3 11 11 59 20 106 8 47 35 193 60 325 25 132 47 265 51 296 7 77 -17
148 -64 190 -73 64 -43 61 -770 62 -365 0 -663 3 -663 6 0 5 161 208 218 276
10 11 64 78 122 150 58 71 110 135 115 141 6 6 24 29 40 50 29 37 209 259 243
299 9 11 33 40 52 65 19 25 37 47 40 50 3 3 32 39 65 80 33 41 62 77 65 80 3
3 23 28 45 55 21 28 42 52 45 55 3 3 21 25 40 50 19 25 40 52 47 60 28 34 258
318 287 354 59 74 98 121 114 141 10 11 42 51 72 90 30 38 62 77 70 85 8 9
137 168 285 353 149 185 272 336 274 337 2 0 1 -15 -2 -32z"/>
</g>
</svg>
